<svg xmlns="http://www.w3.org/2000/svg" viewBox="0 0 62.56 57.57"><defs><style>.cls-1{fill:#e9eaeb}.cls-2,.cls-4{fill:none}.cls-2{stroke:#bcc0c4}.cls-2,.cls-4,.cls-5{stroke-miterlimit:10;stroke-width:2px}.cls-3{fill:#fff}.cls-4,.cls-5{stroke:#373737}.cls-5{fill:#9ad3d3}</style></defs><g id="Слой_2" data-name="Слой 2"><g id="Layer_1" data-name="Layer 1"><circle class="cls-1" cx="31.38" cy="28.89" r="23"/><path class="cls-2" d="M35.88 56.59a28.29 28.29 0 0 0 19.2-13.1M7.08 43.59a28.18 28.18 0 0 0 17.8 12.8M26.18 1a28.07 28.07 0 0 0-19.1 13M55.08 14a28.25 28.25 0 0 0-17.9-12.7"/><path class="cls-1" d="M61.28 29s-13.6 17-30 17-30-17-30-17 13.6-17 30-17 30 17 30 17z"/><circle class="cls-3" cx="30.98" cy="29.39" r="16"/><path class="cls-4" d="M19.78 40.49a16.09 16.09 0 0 1-.2-22.7M42.28 18.09a16.09 16.09 0 0 1 .2 22.7"/><path class="cls-4" d="M61.28 29s-13.6 17-30 17-30-17-30-17 13.6-17 30-17 30 17 30 17z"/><path class="cls-5" d="M31.28 21a7 7 0 0 0-3.8 1 2.79 2.79 0 0 1 .8 2 3 3 0 0 1-3 3 3 3 0 0 1-1.6-.5 6.9 6.9 0 0 0-.4 2.5 8 8 0 1 0 8-8z"/></g></g></svg>