<svg xmlns="http://www.w3.org/2000/svg" viewBox="0 0 69.82 67.73"><defs><style>.cls-1,.cls-2{fill:none;stroke:#bcc0c4;stroke-miterlimit:10;stroke-width:2px}.cls-2{fill:#9ad3d3;stroke:#373737}</style></defs><g id="Слой_2" data-name="Слой 2"><g id="Layer_1" data-name="Layer 1"><path class="cls-1" d="M38.81 61.11h-3.3M46.51 61.11h-3.3M41.01 63.31v3.3M41.01 55.61v3.3M7.01 6.21l-2.2 2.2M12.51.71l-2.2 2.2M10.31 6.21l2.2 2.2M4.81.71l2.2 2.2"/><path class="cls-2" d="M33.41 2.31l-17.5 17.6 4 4c1.4 1.4 1.9 1.2 2.6.4s.6-3.3 2.9-4c1.3-.4 3 .4 4.3 1.7s2.1 3 1.7 4.3c-.7 2.3-3.1 2.1-4 2.9s-1 1.2.4 2.6l5.5 5.5 5.3-5.3c1.4-1.4 1.9-1.2 2.6-.4s.6 3.3 2.9 4c1.3.4 3-.4 4.3-1.7s2.1-3 1.7-4.3c-.7-2.3-3.1-2.1-4-2.9s-1-1.2.4-2.6l4.2-4.2z"/><path class="cls-1" d="M37 41.11l15.1 15.1 3.7-3.7c1.3-1.3 1.1-1.7.4-2.5s-3-.5-3.7-2.7c-.4-1.2.4-2.8 1.6-4s2.8-2 4-1.6c2.2.6 1.9 2.9 2.7 3.7s1.1.9 2.5-.4l5.1-5.1L63.51 35c-1.3-1.3-1.1-1.7-.4-2.5s3-.5 3.7-2.7c.3-1.2-.4-2.8-1.6-4s-2.8-2-4-1.6c-2.2.6-1.9 2.9-2.7 3.7s-1.1.9-2.5-.4l-2-2"/><path class="cls-2" d="M18.81 66.31l17.6-17.6-4-4c-1.4-1.4-1.9-1.2-2.6-.4s-.6 3.3-2.9 4c-1.3.4-3-.4-4.3-1.7s-2.1-3-1.7-4.3c.7-2.3 3.1-2.1 4-2.9s1-1.2-.4-2.6l-5.7-5.6-5.3 5.3c-1.4 1.4-1.9 1.2-2.6.4s-.6-3.3-2.9-4c-1.3-.4-3 .4-4.3 1.7s-2.1 3-1.7 4.3c.7 2.3 3.1 2.1 4 2.9s1 1.2-.4 2.6l-4.2 4.2z"/></g></g></svg>