<svg xmlns="http://www.w3.org/2000/svg" viewBox="0 0 61 64.43"><defs><style>.cls-1{fill:none}.cls-1,.cls-2,.cls-3{stroke:#373737;stroke-miterlimit:10;stroke-width:2px}.cls-2{fill:#9ad3d3}.cls-3{fill:#fff}</style></defs><g id="Слой_2" data-name="Слой 2"><g id="Layer_1" data-name="Layer 1"><path class="cls-1" d="M7.6 28.3L1 31.6v1.1l27.3 14.2L60 30.5v-1.1L51.3 25"/><path class="cls-1" d="M1 36v2.1l27.3 14.3L60 36v-2.2"/><path class="cls-1" d="M1 41.4v2.2l27.3 14.2L60 41.4v-2.2"/><path class="cls-1" d="M1 46.9v2.2l27.3 14.2L60 46.9v-2.2"/><path class="cls-2" d="M42.5 22.9v-5.5h-3.7a6.67 6.67 0 0 0-1-2.4l2.6-2.6-3.9-3.9-2.5 2.6a7.54 7.54 0 0 0-2.4-1V6.5h-5.5v3.6a6.67 6.67 0 0 0-2.4 1l-2.6-2.6-3.9 3.9 2.6 2.6a8.66 8.66 0 0 0-1 2.4h-3.7v5.5h3.7a7.54 7.54 0 0 0 1 2.4l-2.6 2.6 3.9 3.9 2.6-2.6a7.54 7.54 0 0 0 2.4 1v3.7h5.5v-3.7a6.67 6.67 0 0 0 2.4-1l2.6 2.6 3.9-3.9-2.6-2.6a7.54 7.54 0 0 0 1-2.4z"/><circle class="cls-3" cx="28.9" cy="20.1" r="3.8"/><path class="cls-1" d="M16.5 5.5a19.06 19.06 0 0 1 24.6 0M14.2 32.4a19.06 19.06 0 0 1 0-24.6M41.2 34.7a19.06 19.06 0 0 1-24.6 0M43.5 7.8a19.06 19.06 0 0 1 0 24.6"/></g></g></svg>