<svg xmlns="http://www.w3.org/2000/svg" viewBox="0 0 62.3 52"><defs><style>.cls-1,.cls-4{fill:#fff}.cls-1,.cls-2,.cls-3{stroke:#373737;stroke-miterlimit:10;stroke-width:2px}.cls-2{fill:#9ad3d3}.cls-3{fill:none}</style></defs><g id="Слой_2" data-name="Слой 2"><g id="Layer_1" data-name="Layer 1"><path class="cls-1" d="M7.9 11.2h53.4v29.5H7.9z"/><path class="cls-2" d="M52.2 35.1H17a3.37 3.37 0 0 0-3.4-3.4V20.3a3.37 3.37 0 0 0 3.4-3.4h35.2a3.37 3.37 0 0 0 3.4 3.4v11.4a3.44 3.44 0 0 0-3.4 3.4z"/><path class="cls-3" d="M21.6 26h2.2M45.4 26h2.3"/><ellipse class="cls-1" cx="34.6" cy="26" rx="5.1" ry="5.7"/><path class="cls-4" d="M9.1 1c4.4 0 8 1.5 8 3.4v34.1c0 1.9-3.6 3.4-8 3.4s-8-1.5-8-3.4V4.4c0-1.9 3.6-3.4 8-3.4z"/><path class="cls-3" d="M17 4.4v5.7c0 1.9-3.6 3.4-8 3.4S1.1 12 1.1 10.1V4.4"/><path class="cls-3" d="M17 10.1v5.7c0 1.9-3.6 3.4-8 3.4s-8-1.5-8-3.4v-5.7"/><path class="cls-3" d="M17 15.8v5.7c0 1.9-3.6 3.4-8 3.4s-8-1.5-8-3.4v-5.7"/><path class="cls-3" d="M17 21.5v5.7c0 1.9-3.6 3.4-8 3.4S1.1 29 1.1 27.1v-5.7"/><path class="cls-3" d="M17 27.1v5.7c0 1.9-3.6 3.4-8 3.4s-8-1.5-8-3.4v-5.7"/><path class="cls-3" d="M17 27.1v11.4c0 1.9-3.6 3.4-8 3.4s-8-1.5-8-3.4V27.1"/><ellipse class="cls-3" cx="9.1" cy="4.4" rx="8" ry="3.4"/><path class="cls-4" d="M21.6 32.8c4.4 0 8 1.5 8 3.4v11.4c0 1.9-3.6 3.4-8 3.4s-8-1.5-8-3.4V36.2c0-1.9 3.6-3.4 8-3.4z"/><path class="cls-3" d="M29.5 36.2v5.7c0 1.9-3.6 3.4-8 3.4s-8-1.5-8-3.4v-5.7"/><path class="cls-3" d="M29.5 41.9v5.7c0 1.9-3.6 3.4-8 3.4s-8-1.5-8-3.4v-5.7"/><ellipse class="cls-3" cx="21.6" cy="36.2" rx="8" ry="3.4"/></g></g></svg>