<svg xmlns="http://www.w3.org/2000/svg" viewBox="0 0 66.94 66.9"><defs><style>.cls-1{fill:#fff}.cls-2,.cls-3{fill:none}.cls-2,.cls-4{stroke:#373737}.cls-2,.cls-3,.cls-4{stroke-miterlimit:10;stroke-width:2px}.cls-3{stroke:#bcc0c4}.cls-4{fill:#9ad3d3}</style></defs><g id="Слой_2" data-name="Слой 2"><g id="Layer_1" data-name="Layer 1"><circle class="cls-1" cx="37" cy="35.1" r="23.3"/><path class="cls-2" d="M13.7 34a21.28 21.28 0 0 1 1-5.7M15 43.1a21.52 21.52 0 0 1-1.3-5.7M16 24.9a23.5 23.5 0 0 1 21-13.1 23.35 23.35 0 1 1-20.4 34.8"/><path class="cls-2" d="M25 22.6a17.37 17.37 0 1 1 12 29.9 17 17 0 0 1-11.9-4.8"/><path class="cls-3" d="M25 4.4h-6.8M66 24.6A30.56 30.56 0 0 0 53.8 9.2a33.63 33.63 0 0 0-6-3M62.5 53.6a30.16 30.16 0 0 1-24.4 12.3H22.8"/><path class="cls-2" d="M34.1 9V5.6h5.7V9"/><path class="cls-4" d="M30.7 1h12.5v4.6H30.7z"/><path class="cls-2" d="M5.7 24.9h15.9M0 34h18.2M4.6 43.1h15.9M39.6 32.4l7.1-7.5"/><path class="cls-3" d="M20.5 65.9h-4.6M13.7 65.9h-2.3M15.9 4.4h-4.5M9.1 4.4H6.8"/><circle class="cls-4" cx="37" cy="35.1" r="3.1"/><path class="cls-2" d="M20.8 12.5l-4.2 4.2M18.7 14.6l2.9 3"/></g></g></svg>