<svg xmlns="http://www.w3.org/2000/svg" viewBox="0 0 70 67.7"><defs><style>.cls-1,.cls-2{fill:none}.cls-1,.cls-3,.cls-4,.cls-5{stroke:#373737}.cls-1,.cls-2,.cls-3,.cls-5{stroke-miterlimit:10}.cls-1,.cls-2,.cls-3,.cls-4,.cls-5{stroke-width:2px}.cls-2{stroke:#bcc0c4}.cls-3,.cls-4{fill:#fff}.cls-4{stroke-linecap:round;stroke-linejoin:round}.cls-5{fill:#9ad3d3}</style></defs><g id="Слой_2" data-name="Слой 2"><g id="Layer_1" data-name="Layer 1"><path class="cls-1" d="M5.7 5.7h58.6"/><path class="cls-2" d="M63.1 43.2a29.26 29.26 0 0 1-19.9 19.9"/><path class="cls-1" d="M5.7 35a29.3 29.3 0 0 1 58.6 0"/><path class="cls-2" d="M26.8 63.1A29.07 29.07 0 0 1 6.9 43.2"/><path class="cls-3" d="M30.3 1h9.4v9.4h-9.4zM1 30.3h9.4v9.4H1zM59.6 30.3H69v9.4h-9.4z"/><circle class="cls-3" cx="5.7" cy="5.7" r="3.5"/><circle class="cls-3" cx="64.3" cy="5.7" r="3.5"/><path class="cls-4" d="M35 50.2h4.3a33.77 33.77 0 0 1 7.5-11.7 90.61 90.61 0 0 1-11.7-21.1 90.61 90.61 0 0 1-11.7 21.1 35.27 35.27 0 0 1 7.5 11.7z"/><path class="cls-1" d="M35 18.6v19.9"/><path class="cls-3" d="M29.1 49.1h11.7v17.6H29.1z"/><path class="cls-5" d="M28 53.8h14.1v12.9H28z"/><path class="cls-1" d="M32.7 37.3h4.6"/></g></g></svg>