<svg xmlns="http://www.w3.org/2000/svg" viewBox="0 0 26 26"><path d="M22.29 0H3.71A3.63 3.63 0 0 0 0 3.71v18.58A3.63 3.63 0 0 0 3.71 26h18.58A3.63 3.63 0 0 0 26 22.29V3.71A3.63 3.63 0 0 0 22.29 0zM13 20.75a7.65 7.65 0 0 0 7.77-7.53 7.32 7.32 0 0 0-.32-2.14h2.2v10.55a1 1 0 0 1-1 1H4.27a1 1 0 0 1-1-1V11.07h2.3a7.32 7.32 0 0 0-.32 2.14A7.65 7.65 0 0 0 13 20.75zm0-2.94a5 5 0 0 1-5-4.87 5 5 0 0 1 5-4.87 4.94 4.94 0 0 1 5 4.87 5 5 0 0 1-5 4.87zM22.66 7.1a1.13 1.13 0 0 1-1.12 1.13h-2.83a1.13 1.13 0 0 1-1.13-1.13V4.4a1.13 1.13 0 0 1 1.13-1.13h2.83a1.13 1.13 0 0 1 1.12 1.13z"/></svg>