<?xml version="1.0" encoding="UTF-8" standalone="no"?>
<svg
   xmlns:dc="http://purl.org/dc/elements/1.1/"
   xmlns:cc="http://creativecommons.org/ns#"
   xmlns:rdf="http://www.w3.org/1999/02/22-rdf-syntax-ns#"
   xmlns:svg="http://www.w3.org/2000/svg"
   xmlns="http://www.w3.org/2000/svg"
   xmlns:sodipodi="http://sodipodi.sourceforge.net/DTD/sodipodi-0.dtd"
   xmlns:inkscape="http://www.inkscape.org/namespaces/inkscape"
   viewBox="0 0 384.55 87.46"
   version="1.1"
   id="svg492"
   sodipodi:docname="logo.svg"
   inkscape:version="1.0.2-2 (e86c870879, 2021-01-15)">
  <metadata
     id="metadata496">
    <rdf:RDF>
      <cc:Work
         rdf:about="">
        <dc:format>image/svg+xml</dc:format>
        <dc:type
           rdf:resource="http://purl.org/dc/dcmitype/StillImage" />
        <dc:title></dc:title>
      </cc:Work>
    </rdf:RDF>
  </metadata>
  <sodipodi:namedview
     pagecolor="#ffffff"
     bordercolor="#666666"
     borderopacity="1"
     objecttolerance="10"
     gridtolerance="10"
     guidetolerance="10"
     inkscape:pageopacity="0"
     inkscape:pageshadow="2"
     inkscape:window-width="1366"
     inkscape:window-height="705"
     id="namedview494"
     showgrid="false"
     inkscape:zoom="1.0729341"
     inkscape:cx="395.99741"
     inkscape:cy="22.505117"
     inkscape:window-x="-4"
     inkscape:window-y="-4"
     inkscape:window-maximized="1"
     inkscape:current-layer="Слой_2" />
  <defs
     id="defs394">
    <style
       id="style392">.cls-1,.cls-13{fill:#c02855}.cls-2{fill:#e12c79}.cls-10,.cls-11,.cls-12,.cls-13,.cls-14,.cls-15,.cls-2,.cls-3,.cls-4,.cls-5,.cls-6,.cls-7,.cls-8,.cls-9{fill-rule:evenodd}.cls-3{fill:#e05e94}.cls-4{fill:#fff}.cls-5{fill:#f9f1e3}.cls-6{fill:#f6a152}.cls-16,.cls-7{fill:#15a19d}.cls-8{fill:#cc8d73}.cls-9{fill:#38b9b7}.cls-10{fill:#e1cdb7}.cls-11{fill:#f5efe2}.cls-12{fill:#eee2d1}.cls-14{fill:#e9d2bc}.cls-15{fill:#9ed8d5}</style>
  </defs>
  <g
     id="Слой_2"
     data-name="Слой 2">
    <g
       id="Layer_1"
       data-name="Layer 1">
      <path
         class="cls-1"
         d="M116 54h4.18V40.43h2.51a6.81 6.81 0 0 1 1.11.07 2.4 2.4 0 0 1 .89.31 1.86 1.86 0 0 1 .63.71l5.09 10.23a4.69 4.69 0 0 0 1 1.43 2.57 2.57 0 0 0 1.25.64 8.92 8.92 0 0 0 1.88.15h2.3v-3.61H136a4.92 4.92 0 0 1-.89-.06 1.45 1.45 0 0 1-1.2-.9l-4.43-8.85a5.41 5.41 0 0 0-.81-1.2 2.85 2.85 0 0 0-.61-.52 1 1 0 0 0-.25-.11v-.08l.25-.17a5.2 5.2 0 0 0 .61-.6 7.32 7.32 0 0 0 .81-1.15l7.14-12.24h-4.72l-6.56 11.4a1.85 1.85 0 0 1-1 .81 4.42 4.42 0 0 1-1.43.19h-2.8v-9.73a2.74 2.74 0 0 0-.63-2 2.74 2.74 0 0 0-2-.63h-4.22v3.59H115a.81.81 0 0 1 1 .89v25zm23.19-1.5a4.63 4.63 0 0 0 .73.56 8.46 8.46 0 0 0 1.25.66 9.68 9.68 0 0 0 1.63.56 8.42 8.42 0 0 0 1.91.23A6.43 6.43 0 0 0 147 54a5.8 5.8 0 0 0 1.83-1.17 8.2 8.2 0 0 0 1.34-1.67 12 12 0 0 0 .95-1.94l8-20.29a1.32 1.32 0 0 1 .54-.7 1.73 1.73 0 0 1 .88-.17h.67v-3.59H159a5.58 5.58 0 0 0-1.67.19 2.14 2.14 0 0 0-1 .73 5.58 5.58 0 0 0-.75 1.5l-4.63 12.74c-.25.69-.47 1.31-.66 1.85l-.43 1.29-.16.49h-.08l-.2-.54-.55-1.34c-.24-.55-.5-1.14-.79-1.76l-6-12.74a6.62 6.62 0 0 0-.81-1.45 2.27 2.27 0 0 0-1-.76 4.48 4.48 0 0 0-1.57-.22h-2.55v3.59h.85a1.35 1.35 0 0 1 .83.21 1.71 1.71 0 0 1 .55.71l9.15 18.37a9.6 9.6 0 0 1-.8 1.8 3.24 3.24 0 0 1-1 1.11 2.74 2.74 0 0 1-1.5.38 4 4 0 0 1-1.68-.38 6 6 0 0 1-1.41-.91l-1.92 3.09zm22.17 1.5H166l5.38-9 .67-1.22.58-1.09.4-.78.15-.3h.08l.27.5.68 1.25.89 1.64 5.39 9h4.72l-9.31-15.2 6-9.65a2.67 2.67 0 0 1 .57-.7 1.39 1.39 0 0 1 .61-.29 3.48 3.48 0 0 1 .74-.06h1.09v-3.63h-2.46a6.52 6.52 0 0 0-1.68.17 2.73 2.73 0 0 0-1.2.67 6.35 6.35 0 0 0-1 1.42l-3.34 5.6c-.24.41-.47.82-.68 1.23s-.41.78-.58 1.12-.29.61-.39.81l-.15.31h-.08l-.17-.31-.42-.81-.61-1.12-.68-1.23-3.3-5.6a6 6 0 0 0-1.17-1.42 2.74 2.74 0 0 0-1.21-.67 6.67 6.67 0 0 0-1.7-.17h-2.39v3.59h1a3.83 3.83 0 0 1 .77.06 1.41 1.41 0 0 1 .62.29 2.67 2.67 0 0 1 .57.7l5.93 9.65L161.36 54zm28.07 0h4.18V41h15v13h4.18V29a.82.82 0 0 1 .92-.92h1.8v-3.61h-4.18a2.81 2.81 0 0 0-2.07.63 2.74 2.74 0 0 0-.64 2v10.36h-15V27.15a2.73 2.73 0 0 0-.63-2 2.74 2.74 0 0 0-2-.63h-4.22v3.59h1.8a.81.81 0 0 1 .92.92V54zm31.2 0h4.13l12.95-18.87c.26-.41.54-.86.84-1.34s.56-1 .81-1.41.46-.81.62-1.11l.24-.45h.08v.44c0 .29-.06.65-.09 1.1s-.06.91-.08 1.41 0 .94 0 1.36v16.2a2.74 2.74 0 0 0 .64 2 2.81 2.81 0 0 0 2.07.63h4.18v-3.6h-1.8a.83.83 0 0 1-.92-.92v-25h-4.09l-12.93 18.83c-.26.4-.55.85-.85 1.34s-.59.95-.86 1.39l-.66 1.09-.26.45h-.08v-.42l.08-1.06c0-.43.06-.89.08-1.37s0-.94 0-1.36V27.15a2.74 2.74 0 0 0-.63-2 2.74 2.74 0 0 0-2-.63h-4.22v3.59h1.8a.81.81 0 0 1 .92.92V54zM269 42.68a12.88 12.88 0 0 0 2.9-.35 15.26 15.26 0 0 0 2.46-.8 17.59 17.59 0 0 0 1.87-.9h.08V54h4.18V24.47h-4.18v12.4a9.2 9.2 0 0 1-1.55.91 11.85 11.85 0 0 1-2.16.77 10.45 10.45 0 0 1-2.55.33 7.52 7.52 0 0 1-3.37-.65 4 4 0 0 1-1.89-1.92 7.33 7.33 0 0 1-.58-3.15v-6a2.74 2.74 0 0 0-.63-2 2.74 2.74 0 0 0-2-.63h-4.22v3.59h1.8a.81.81 0 0 1 .84.88v5.09a10 10 0 0 0 1 4.62 6.63 6.63 0 0 0 3 2.94 11.26 11.26 0 0 0 5.09 1zm18.51 8.6a2.71 2.71 0 0 0 .65 2 2.81 2.81 0 0 0 2.06.63h13.07a2.29 2.29 0 0 0 2.71-2.63v-3.71h-3.8v1.88a.83.83 0 0 1-.92.92h-8.64a.83.83 0 0 1-.92-.92v-8.56h10.36v-3.6h-10.35v-9.22h8.39a.81.81 0 0 1 .88.93v1.88h3.84v-3.73a2.74 2.74 0 0 0-.63-2 2.74 2.74 0 0 0-2-.63h-17.37v3.59h2.71v23.17zM311 54h4.18V43.06h6.1a10.22 10.22 0 0 0 3.74-.68 8.43 8.43 0 0 0 4.85-4.86 10.59 10.59 0 0 0 .68-3.82 10.41 10.41 0 0 0-.68-3.8 8.24 8.24 0 0 0-4.87-4.77 10.53 10.53 0 0 0-3.74-.65h-13v3.59H311V54zm4.18-14.49V28.07h5.47a6.27 6.27 0 0 1 3 .68 4.53 4.53 0 0 1 1.92 1.92 6.42 6.42 0 0 1 .68 3 6.58 6.58 0 0 1-.68 3.07 4.73 4.73 0 0 1-1.93 2 6.28 6.28 0 0 1-3 .7zM334.59 54h4.18V43.06h6.1a10.22 10.22 0 0 0 3.74-.68 8.43 8.43 0 0 0 4.85-4.86 10.57 10.57 0 0 0 .68-3.82 10.4 10.4 0 0 0-.68-3.8 8.24 8.24 0 0 0-4.85-4.77 10.53 10.53 0 0 0-3.74-.65h-13v3.59h2.71V54zm4.18-14.49V28.07h5.47a6.27 6.27 0 0 1 3 .68 4.53 4.53 0 0 1 1.92 1.92 6.41 6.41 0 0 1 .68 3 6.57 6.57 0 0 1-.68 3.07 4.72 4.72 0 0 1-1.93 2 6.28 6.28 0 0 1-3 .7zM358.24 54h4.13l12.94-18.87c.26-.41.54-.86.84-1.34s.56-1 .81-1.41.46-.81.62-1.11l.24-.45h.08v.44c0 .29-.06.65-.09 1.1s-.06.91-.08 1.41 0 .94 0 1.36v16.2a2.74 2.74 0 0 0 .64 2 2.81 2.81 0 0 0 2.07.63h4.18v-3.6h-1.8a.83.83 0 0 1-.92-.92v-25h-4.09l-12.93 18.83c-.26.4-.55.85-.85 1.34s-.59.95-.86 1.39l-.66 1.09-.26.45h-.08v-.42l.08-1.06c0-.43.06-.89.08-1.37s0-.94 0-1.36V27.15a2.73 2.73 0 0 0-.63-2 2.74 2.74 0 0 0-2-.63h-4.22v3.59h1.8a.81.81 0 0 1 .92.92V54zM60.52 11.79l-6.34-5.56C52.4 4.67 55.72 1.11 57.4 3L63 9.35a10.41 10.41 0 1 1-2.43 2.43z"
         id="path396" />
      <path
         class="cls-2"
         d="M61.63 25.19l14.73-14.72a10.41 10.41 0 0 1-14.73 14.72z"
         id="path398" />
      <path
         class="cls-3"
         d="M61.42 17.83A7.58 7.58 0 1 1 69 25.41a7.58 7.58 0 0 1-7.58-7.58z"
         id="path400" />
      <path
         class="cls-4"
         d="M74.42 12.54a7.57 7.57 0 0 1-10.71 10.72 8.34 8.34 0 0 0 10.71-10.72z"
         id="path402" />
      <path
         class="cls-5"
         d="M55.42 4.25a1 1 0 1 1 0 1.41 1 1 0 0 1 0-1.41z"
         id="path404" />
      <path
         class="cls-4"
         d="M46.91 22.59h37.48v3.29H46.91v-3.29z"
         id="path406" />
      <path
         class="cls-6"
         d="M0 24.48h47.99v48H0v-48z"
         id="path408" />
      <path
         class="cls-7"
         d="M0 81.9h47.99v-5.44H0v5.44z"
         id="path410" />
      <path
         class="cls-8"
         d="M51.99 81.9h48v-5.44h-48v5.44z"
         id="path412" />
      <path
         class="cls-9"
         d="M52 24.48h44.68V10.1a4.41 4.41 0 0 0-4.39-4.39h-.39A4.4 4.4 0 0 0 88.8 7a4.32 4.32 0 0 0-1.29 3.07v3.59h-3.3v-3.59a7.61 7.61 0 0 1 2.26-5.41 7.7 7.7 0 0 1 5.43-2.25h.39a7.71 7.71 0 0 1 7.7 7.7v62.37H52v-48z"
         id="path414" />
      <path
         class="cls-10"
         d="M51.99 38.19h48v34.29h-48V38.19z"
         id="path416" />
      <path
         class="cls-11"
         d="M6.78 31.17a4 4 0 1 1 0 5.66 4 4 0 0 1 0-5.66z"
         id="path418" />
      <path
         class="cls-12"
         d="M7.43 31.82a3.08 3.08 0 0 1 4.36 0l-4.36 4.36a3.08 3.08 0 0 1 0-4.36z"
         id="path420" />
      <path
         class="cls-8"
         d="M7.43 31.82a3.08 3.08 0 0 1 4.36 0l-4.36 4.36a3.08 3.08 0 0 1 0-4.36z"
         id="path422" />
      <path
         class="cls-3"
         d="M33.86 0a3 3 0 0 1 3 3h-6a3 3 0 0 1 3-3z"
         id="path424" />
      <path
         class="cls-13"
         d="M44.22 22.6H23.64V11.4h20.58v11.2z"
         id="path426" />
      <path
         class="cls-3"
         d="M44.22 22.6h-10.5V11.4h10.5v11.2z"
         id="path428" />
      <path
         class="cls-8"
         d="M33.86 9.72H23.48a4.69 4.69 0 0 1 5.06-5h5.33v5z"
         id="path430" />
      <path
         class="cls-14"
         d="M33.86 9.72h10.39a4.69 4.69 0 0 0-5.06-5h-5.33v5z"
         id="path432" />
      <path
         class="cls-11"
         d="M16.38 31.17a4 4 0 1 1 0 5.66 4 4 0 0 1 0-5.66z"
         id="path434" />
      <path
         class="cls-12"
         d="M17 31.82a3.08 3.08 0 0 1 4.36 0L17 36.18a3.08 3.08 0 0 1 0-4.36z"
         id="path436" />
      <path
         class="cls-8"
         d="M17 31.82a3.08 3.08 0 0 1 4.36 0L17 36.18a3.08 3.08 0 0 1 0-4.36z"
         id="path438" />
      <path
         class="cls-11"
         d="M26 31.17a4 4 0 1 1 0 5.66 4 4 0 0 1 0-5.66z"
         id="path440" />
      <path
         class="cls-12"
         d="M26.64 31.82a3.08 3.08 0 0 1 4.36 0l-4.36 4.36a3.08 3.08 0 0 1 0-4.36z"
         id="path442" />
      <path
         class="cls-8"
         d="M26.64 31.82a3.08 3.08 0 0 1 4.36 0l-4.36 4.36a3.08 3.08 0 0 1 0-4.36z"
         id="path444" />
      <path
         class="cls-11"
         d="M35.56 31.17a4 4 0 1 1 0 5.66 4 4 0 0 1 0-5.66z"
         id="path446" />
      <path
         class="cls-12"
         d="M36.21 31.82a3.08 3.08 0 0 1 4.36 0l-4.36 4.36a3.08 3.08 0 0 1 0-4.36z"
         id="path448" />
      <path
         class="cls-8"
         d="M36.21 31.82a3.08 3.08 0 0 1 4.36 0l-4.36 4.36a3.08 3.08 0 0 1 0-4.36z"
         id="path450" />
      <path
         class="cls-7"
         d="M80.8 29.97l1.44.92v3.88H70.72l-.97-1.42H80.8v-3.38z"
         id="path452" />
      <path
         class="cls-11"
         d="M69.75 29.97H80.8v3.38H69.75v-3.38z"
         id="path454" />
      <path
         class="cls-7"
         d="M40.51 41.74l1.72 1.68v24.31H7.48l-1.71-1.64h34.74V41.74z"
         id="path456" />
      <path
         class="cls-9"
         d="M5.76 41.74h34.75v24.35H5.76V41.74z"
         id="path458" />
      <path
         class="cls-15"
         d="M38.8 43.31l1.71-1.57v24.35H5.76l2.2-1.64H38.8V43.31z"
         id="path460" />
      <path
         class="cls-7"
         d="M28.8 47.96l1.44.92v3.88H18.72l-.97-1.42H28.8v-3.38z"
         id="path462" />
      <path
         class="cls-11"
         d="M17.75 47.96H28.8v3.38H17.75v-3.38z"
         id="path464" />
      <path
         class="cls-7"
         d="M78.93 67.81H57.62l-2.22-1.68 18.65-24.39 4.88 2.18v23.89z"
         id="path466" />
      <path
         class="cls-7"
         d="M96.58 67.81H78.53l-2.22-1.68 18.34-24.39 1.93 2.18v23.89z"
         id="path468" />
      <path
         class="cls-9"
         d="M74.05 66.13H55.4V41.74h18.65v24.39z"
         id="path470" />
      <path
         class="cls-15"
         d="M74.05 66.13H55.4l1.52-1.76h15.35V43.24l1.78-1.5v24.39z"
         id="path472" />
      <path
         class="cls-9"
         d="M94.65 66.13H76V41.74h18.65v24.39z"
         id="path474" />
      <path
         class="cls-7"
         d="M69.56 47.94l1.35.84v3.55H60.13l-.91-1.31h10.34v-3.08zM90.16 47.94l1.35.84v3.55H80.73l-.91-1.31h10.34v-3.08z"
         id="path476" />
      <path
         class="cls-11"
         d="M59.24 47.89h10.32v3.13H59.24v-3.13zM79.84 47.89h10.32v3.13H79.84v-3.13z"
         id="path478" />
      <path
         class="cls-15"
         d="M94.65 66.13H76l1.51-1.76h15.36V43.24l1.78-1.5v24.39z"
         id="path480" />
      <path
         class="cls-6"
         d="M92.15 16.88a3 3 0 1 1-3 3 3 3 0 0 1 3-3zM1.06 18.09a4.5 4.5 0 1 0 9 0V4.6H7v12.85H1v.64z"
         id="path482" />
      <path
         class="cls-3"
         d="M47.4 11.4h-4.17v2.78h4.17V11.4z"
         id="path484" />
      <path
         class="cls-13"
         d="M24.71 11.4h-4.17v2.78h4.17V11.4z"
         id="path486" />
    </g>
    <text
       xml:space="preserve"
       style="font-style:normal;font-weight:normal;font-size:40px;line-height:1.25;font-family:sans-serif;fill:#15a19d;fill-opacity:1;stroke:none;"
       x="120.69707"
       y="75.493919"
       id="text1331"><tspan
         sodipodi:role="line"
         id="tspan1329"
         x="120.69707"
         y="75.493919" /></text>
    <text
       xml:space="preserve"
       style="font-style:normal;font-weight:normal;font-size:40px;line-height:1.25;font-family:sans-serif;fill:#15a19d;fill-opacity:1;stroke:none;"
       x="120.69707"
       y="70.833801"
       id="text1335"><tspan
         sodipodi:role="line"
         id="tspan1333"
         x="120.69707"
         y="70.833801" /></text>
    <text
       xml:space="preserve"
       style="font-style:normal;font-weight:normal;font-size:32.071px;line-height:1.25;font-family:sans-serif;fill:#000000;fill-opacity:1;stroke:none;stroke-width:0.801775"
       x="105.79885"
       y="87.714607"
       id="text1339"
       transform="scale(1.0726113,0.93230419)"><tspan
         sodipodi:role="line"
         id="tspan1337"
         x="105.79885"
         y="87.714607"
         style="font-style:normal;font-variant:normal;font-weight:normal;font-stretch:normal;font-family:Andalus;-inkscape-font-specification:Andalus;fill:#15a19d;fill-opacity:1;stroke-width:0.801775">kuhni-cherry.by</tspan></text>
  </g>
</svg>
