<svg xmlns="http://www.w3.org/2000/svg" viewBox="0 0 59 35.4"><defs><style>.cls-1{fill:#fcb415}.cls-2{fill:#ca2027}.cls-3{fill:#fff}</style></defs><g id="Слой_2" data-name="Слой 2"><g id="Layer_1" data-name="Layer 1"><path class="cls-1" d="M59 17.7A17.7 17.7 0 1 1 41.21 0 17.69 17.69 0 0 1 59 17.7zm0 0"/><path class="cls-2" d="M35.31 17.79a24.16 24.16 0 0 0-.38-3.79H24.07a13.68 13.68 0 0 1 .47-1.87h9.74a11.15 11.15 0 0 0-.75-1.87h-8.24a18.53 18.53 0 0 1 1-1.87h6.27a8.9 8.9 0 0 0-1.4-1.87h-3.44a15.93 15.93 0 0 1 1.78-1.74A17.28 17.28 0 0 0 17.61.19a17.61 17.61 0 1 0 .09 35.21 17.9 17.9 0 0 0 11.89-4.59 16.85 16.85 0 0 0 1.78-1.87h-3.65a21.5 21.5 0 0 1-1.31-1.78h6.27a11.94 11.94 0 0 0 1-1.87h-8.3a11.18 11.18 0 0 1-.75-1.87h9.74a18.6 18.6 0 0 0 .94-5.63z"/><path class="cls-3" d="M24 22.2l.28-1.59a4.07 4.07 0 0 1-.47.09c-.66 0-.75-.37-.66-.56l.56-3.28h1l.29-1.78h-.94l.2-1.08h-1.88s-1.12 6.18-1.12 6.93a1.41 1.41 0 0 0 1.5 1.59A2.88 2.88 0 0 0 24 22.2zm0 0M24.63 19.2a3 3 0 0 0 3.28 3.28 4.86 4.86 0 0 0 2-.28l.37-1.78a5.61 5.61 0 0 1-2 .47c-2.06 0-1.69-1.5-1.69-1.5h3.84a12.13 12.13 0 0 0 .28-1.69A2.54 2.54 0 0 0 28 15c-2-.19-3.37 1.87-3.37 4.21zm3.28-2.72c1 0 .84 1.22.84 1.31h-2.06c0-.09.19-1.31 1.22-1.31zm0 0M39.8 22.2l.37-2.06a4.6 4.6 0 0 1-1.59.47c-1.31 0-1.87-1-1.87-2.15 0-2.25 1.12-3.47 2.44-3.47a3.13 3.13 0 0 1 1.69.56l.28-2a6.59 6.59 0 0 0-2.12-.44c-2.15 0-4.31 1.87-4.31 5.43 0 2.34 1.12 3.93 3.37 3.93a8.39 8.39 0 0 0 1.78-.28zm0 0M13.67 14.8a6.64 6.64 0 0 0-2.25.37l-.28 1.59a5.54 5.54 0 0 1 2.06-.37c.66 0 1.22.09 1.22.66 0 .37-.09.47-.09.47h-.84c-1.59 0-3.37.66-3.37 2.81 0 1.69 1.12 2.06 1.78 2.06a2.81 2.81 0 0 0 2-.84l-.09.75h1.69l.75-5.15a2.22 2.22 0 0 0-2.53-2.34zM14 19c0 .28-.19 1.78-1.31 1.78A.73.73 0 0 1 12 20c0-.47.28-1.12 1.69-1.12A1.47 1.47 0 0 0 14 19zm0 0M18 22.38c.47 0 2.81.09 2.81-2.44 0-2.34-2.25-1.87-2.25-2.81 0-.47.37-.66 1-.66.28 0 1.31.09 1.31.09l.28-1.69a7.11 7.11 0 0 0-1.78-.19c-1.4 0-2.81.56-2.81 2.44 0 2.15 2.34 2 2.34 2.81 0 .56-.66.66-1.12.66a6.12 6.12 0 0 1-1.69-.28L15.83 22c.09.19.56.38 2.15.38zm0 0M55.35 13.3L55 15.83a2.6 2.6 0 0 0-1.78-.94c-1.71 0-3.22 2.11-3.22 4.5 0 1.5.75 3.09 2.34 3.09a2.5 2.5 0 0 0 1.78-.75l-.09.66h1.87l1.41-9zm-.84 5c0 1-.47 2.34-1.5 2.34-.65 0-1-.56-1-1.5 0-1.5.66-2.43 1.5-2.43.66 0 1 .47 1 1.59zm0 0M3.47 22.29l1.12-6.74.19 6.74h1.31l2.43-6.74-1 6.74h2l1.5-9H7.87L6 18.82l-.1-5.52H3.18l-1.5 9zm0 0M32.5 22.29c.56-3.09.66-5.62 2-5.15a7.36 7.36 0 0 1 .62-2.14h-.37c-.84 0-1.5 1.12-1.5 1.12l.19-1h-1.79l-1.22 7.31h2.07zm0 0M44.11 14.8a6.64 6.64 0 0 0-2.25.37l-.28 1.59a5.54 5.54 0 0 1 2.06-.37c.66 0 1.22.09 1.22.66 0 .37-.09.47-.09.47h-.84c-1.59 0-3.37.66-3.37 2.81 0 1.69 1.12 2.06 1.78 2.06a2.81 2.81 0 0 0 2-.84l-.09.75h1.69l.75-5.15a2.19 2.19 0 0 0-2.53-2.34zm.47 4.2c0 .28-.19 1.78-1.31 1.78a.73.73 0 0 1-.75-.75c0-.47.28-1.12 1.69-1.12.28.09.28.09.38.09zm0 0M48.23 22.29c.56-3.09.65-5.62 2-5.15a7.36 7.36 0 0 1 .62-2.14h-.37c-.84 0-1.5 1.12-1.5 1.12l.19-1h-1.78l-1.22 7.31h2.06zm0 0"/></g></g></svg>