<svg xmlns="http://www.w3.org/2000/svg" viewBox="0 0 8.23 14.82"><path d="M4.12 7.65a3.75 3.75 0 0 0 3.66-3.83A3.75 3.75 0 0 0 4.12 0 3.75 3.75 0 0 0 .45 3.82a3.75 3.75 0 0 0 3.67 3.83zm0-5.41a1.55 1.55 0 0 1 1.51 1.58 1.55 1.55 0 0 1-1.51 1.59A1.55 1.55 0 0 1 2.6 3.82a1.56 1.56 0 0 1 1.52-1.58z"/><path class="cls-1" d="M5.6 10.77a6.71 6.71 0 0 0 2.13-.92 1.15 1.15 0 0 0 .34-1.55 1 1 0 0 0-1.48-.35 4.5 4.5 0 0 1-4.94 0 1 1 0 0 0-1.48.35A1.15 1.15 0 0 0 .5 9.85a6.71 6.71 0 0 0 2.13.92l-2 2.14a1.15 1.15 0 0 0 0 1.58 1 1 0 0 0 1.52 0l2-2.1 2 2.1a1 1 0 0 0 1.52 0 1.15 1.15 0 0 0 0-1.58z"/></svg>