<svg xmlns="http://www.w3.org/2000/svg" viewBox="0 0 70.1 54.2"><defs><style>.cls-1{fill:#e9eaeb}.cls-2,.cls-5{fill:none}.cls-2,.cls-3,.cls-4,.cls-5{stroke:#373737;stroke-miterlimit:10;stroke-width:2px}.cls-3{fill:#fff}.cls-4{fill:#9ad3d3}.cls-5{stroke-linecap:round}</style></defs><g id="Слой_2" data-name="Слой 2"><g id="Layer_1" data-name="Layer 1"><path class="cls-1" d="M62.5 1h-6v7.9H69c.1-4.5-2.9-7.9-6.5-7.9z"/><path class="cls-2" d="M60 8.9h9.1c0-4.5-2.9-7.9-6.5-7.9H52.1"/><path class="cls-3" d="M63 1a6.51 6.51 0 0 0-6.4 6.7v38.6a7.28 7.28 0 0 1-7 6.9h-27V7.5A6.75 6.75 0 0 1 29.4 1z"/><path class="cls-4" d="M43.2 46.3H14.4c1 3.4 4.3 6.8 7.3 6.8h27.7c-2.9 0-5.5-3.4-6.2-6.8z"/><path class="cls-2" d="M29.4 12.3h20.4M29.4 16.9h20.4M29.4 21.4h20.4M43 39.5h6.8"/><path class="cls-4" d="M34 37.9s-.7-5.5-3.4-8.2S8.8 7.8 8.8 7.8a3.47 3.47 0 0 0-4.9-.1 3.38 3.38 0 0 0 .1 4.9l21.9 21.9c2.7 2.8 8.1 3.4 8.1 3.4z"/><path class="cls-5" d="M11.4 26.5L1 16.1M4.2 19.3l2.4-2.4M33.9 37.7l1.6 1.6M25.8 34.5l4.8-4.8M7.4 16.1l4.8-4.8"/><path class="cls-2" d="M38.5 39.5h2.2"/></g></g></svg>