<svg xmlns="http://www.w3.org/2000/svg" viewBox="0 0 57.89 57.85"><defs><style>.cls-1{fill:#fff}.cls-1,.cls-2,.cls-4{stroke:#373737}.cls-1,.cls-2,.cls-3,.cls-4{stroke-miterlimit:10;stroke-width:2px}.cls-2,.cls-3{fill:none}.cls-3{stroke:#bcc0c4}.cls-4{fill:#9ad3d3}</style></defs><g id="Слой_2" data-name="Слой 2"><g id="Layer_1" data-name="Layer 1"><path class="cls-1" d="M53.75 9.1L48 14.8a1 1 0 0 1-1.4 0l-4.2-4.2a1 1 0 0 1 0-1.4L48 3.5a7.85 7.85 0 0 0-9.9 1.4L36 7c-2.5 2.5-1.9 6-.7 9.2L3.55 48a2.9 2.9 0 0 0 0 4.2l1.4 1.4a2.9 2.9 0 0 0 4.2 0C16.55 46.3 41 21.9 41 21.9c3.2 1.2 6.7 1.7 9.1-.8l2.1-2.1a7.74 7.74 0 0 0 1.55-9.9z"/><path class="cls-2" d="M7.75 50.8l-1.4-1.4"/><path class="cls-3" d="M13.45 5.7a28.09 28.09 0 0 1 23-3.7M4.45 42.4a27.94 27.94 0 0 1 0-26.9M41.45 53.9a27.83 27.83 0 0 1-27.1-1.2M55.45 20.1a27.67 27.67 0 0 1-3.3 24.3"/><path class="cls-2" d="M38.15 19l-29 29"/><path class="cls-1" d="M33.95 38.9l-21.3-21.3-3.5-.7-5.6-8.5 2.8-2.8 8.5 5.7.7 3.5L36.75 36l-2.8 2.9z"/><path class="cls-4" d="M31.75 41l7.1-7.1 3.5.7v4.2l11.3 11.3a2.9 2.9 0 0 1 0 4.2l-1.4 1.4a2.9 2.9 0 0 1-4.2 0l-11.3-11.2h-4.2z"/><path class="cls-2" d="M38.85 41l12 12"/></g></g></svg>