<svg xmlns="http://www.w3.org/2000/svg" viewBox="0 0 73.1 66.7"><defs><style>.cls-1,.cls-6{fill:#e9eaeb}.cls-2,.cls-7{fill:#9ad3d3}.cls-3,.cls-4{fill:none}.cls-3,.cls-4,.cls-5,.cls-6,.cls-7{stroke:#bcc0c4;stroke-miterlimit:10;stroke-width:2px}.cls-4,.cls-5,.cls-6,.cls-7{stroke:#373737}.cls-5{fill:#fff}</style></defs><g id="Слой_2" data-name="Слой 2"><g id="Layer_1" data-name="Layer 1"><path class="cls-1" d="M65.1 66.7H8a8 8 0 0 1-8-8V49h73.1v9.7a8 8 0 0 1-8 8z"/><path class="cls-2" d="M69.6 46.7c0-1.4.6-6.5-2.8-7.3-.3-.6-1.6-3.3-2.6-5.6a6.15 6.15 0 0 0-5.6-3.6h-9v22.4h19.6s1.7-1.1 1.7-2.4.2-3.1-1.3-3.5z"/><path class="cls-3" d="M8.3 6.6H5.9M3.5 6.6H1.2M43.6 6.6H32a3.52 3.52 0 0 0-3.2-2.2 5.07 5.07 0 0 0-1.3.2A5.32 5.32 0 0 0 22.4 1c-3.1 0-5.6 3.2-5.6 5.6h-6.2M71.9 12.5h-4.7a4.77 4.77 0 0 0-4.3-2.2 4.76 4.76 0 0 0-4.2-2.5 5.09 5.09 0 0 0-4.9 4.7H42.5"/><path class="cls-4" d="M49.5 52.6h19.6s1.7-1.1 1.7-2.4.3-3.1-1.2-3.5c0-1.4.6-6.5-2.8-7.3-.3-.6-1.6-3.3-2.6-5.6a6.15 6.15 0 0 0-5.6-3.6h-9"/><path class="cls-5" d="M61.4 39.5l-1.9-4.1a.79.79 0 0 0-.8-.5h-4.4v5.9h6.3a1 1 0 0 0 .8-1.3zM10.6 19.5h38.9v33H10.6z"/><circle class="cls-6" cx="21.2" cy="52.6" r="4.7"/><circle class="cls-6" cx="57.8" cy="52.6" r="4.7"/><path class="cls-5" d="M3.5 34.9h30.7v22.4H3.5z"/><path class="cls-7" d="M14.2 34.9h9.4v5.9h-9.4z"/><path class="cls-4" d="M7.1 52.6h2.3M11.8 52.6h2.4M16.5 52.6h2.4"/></g></g></svg>