<svg xmlns="http://www.w3.org/2000/svg" viewBox="0 0 69.38 63.18"><defs><style>.cls-1{fill:#9ad3d3}.cls-1,.cls-2,.cls-4{stroke:#373737}.cls-1,.cls-2{stroke-miterlimit:10}.cls-1,.cls-2,.cls-3,.cls-4{stroke-width:2px}.cls-2{fill:#fff}.cls-3,.cls-4{stroke-linejoin:round}.cls-3{stroke:#bcc0c4;fill:none}.cls-4{fill:#e9eaeb}</style></defs><g id="Слой_2" data-name="Слой 2"><g id="Layer_1" data-name="Layer 1"><path class="cls-1" d="M43.88 17.68L41 10.88l-4.1 1.4a16 16 0 0 0-4.1-4.1l1.4-4.1-6.8-2.8-2 3.9a18.8 18.8 0 0 0-5.8 0l-1.9-3.9-6.8 2.8 1.4 4.1a16 16 0 0 0-4.1 4.1l-4.1-1.4-2.8 6.8 3.9 2a18.8 18.8 0 0 0 0 5.8l-3.9 1.9 2.8 6.8 4.1-1.4a16 16 0 0 0 4.1 4.1L10.88 41l6.8 2.8 2-3.9a18.8 18.8 0 0 0 5.8 0l1.9 3.9 6.8-2.8-1.4-4.1a16 16 0 0 0 4.1-4.1l4.1 1.4 2.8-6.8-3.9-2a18.8 18.8 0 0 0 0-5.8z"/><circle class="cls-2" cx="22.59" cy="22.53" r="7.1" transform="rotate(-67.49 22.588 22.527)"/><path class="cls-3" d="M49.38 20.88a4.81 4.81 0 0 1 6.4-2.6 4.76 4.76 0 0 1 .5 8.6"/><path class="cls-4" d="M67.48 44.38l-1.9-4.6-3.58 1.4a10.7 10.7 0 0 0-2.6-2.6l1.5-3.6-4.6-1.9-1.5 3.6a10.87 10.87 0 0 0-3.6 0l-1.5-3.6L45 35l1.5 3.6a10.7 10.7 0 0 0-2.6 2.6l-3.6-1.5-1.9 4.6 3.6 1.5a10.87 10.87 0 0 0 0 3.6L38.38 51l1.9 4.6 3.6-1.5a10.7 10.7 0 0 0 2.6 2.6L45 60.28l4.6 1.9 1.5-3.6a10.87 10.87 0 0 0 3.6 0l1.5 3.6 4.6-1.9-1.5-3.6a10.7 10.7 0 0 0 2.6-2.6l3.6 1.5 1.9-4.6-3.6-1.5a10.87 10.87 0 0 0 0-3.6z"/><path class="cls-3" d="M62.38 29.48l3.4 1.7 2.2-4.4-3.4-1.7a10.92 10.92 0 0 0 .2-3.6l3.6-1.2-1.6-4.7-3.6 1.2a12.25 12.25 0 0 0-2.4-2.7l1.7-3.4L58 8.58 56.28 12a10.92 10.92 0 0 0-3.6-.2l-1.2-3.6-4.7 1.6 1.2 3.6"/><circle class="cls-2" cx="52.99" cy="47.66" r="4.9" transform="rotate(-22.5 52.997 47.674)"/></g></g></svg>