<svg xmlns="http://www.w3.org/2000/svg" viewBox="0 0 66.6 70"><defs><style>.cls-1{fill:#e9eaeb}.cls-2,.cls-4{fill:#fff}.cls-3{fill:none}.cls-3,.cls-4,.cls-5{stroke:#373737;stroke-miterlimit:10;stroke-width:2px}.cls-5{fill:#9ad3d3}</style></defs><g id="Слой_2" data-name="Слой 2"><g id="Layer_1" data-name="Layer 1"><circle class="cls-1" cx="33.3" cy="33.3" r="33.3"/><path class="cls-2" d="M29.7 4.8l-3.6-2.4-3.6 2.4L19 2.4l-3.6 2.4-4.8-2.4V50a4.8 4.8 0 0 0 4.8 4.8h19V2.4z"/><path class="cls-1" d="M25 13.1a4.8 4.8 0 0 0-4.8 4.8V50a4.8 4.8 0 0 1-4.8 4.8h14.3V13.1z"/><path class="cls-2" d="M30.9 30.9V17.8a4.8 4.8 0 0 0-4.8-4.8H50a4.8 4.8 0 0 1 4.8 4.8v13.1z"/><path class="cls-3" d="M34.5 9.5V2.4l-4.8 2.4-3.6-2.4-3.6 2.4L19 2.4l-3.6 2.4-4.8-2.4V50a4.8 4.8 0 0 0 4.8 4.8"/><path class="cls-3" d="M15.5 54.7a4.8 4.8 0 0 0 4.8-4.8V17.8a4.8 4.8 0 0 1 4.8-4.8h1.2"/><path class="cls-4" d="M26.2 66.6V29.7a2.43 2.43 0 0 1 2.4-2.4h28.6a2.43 2.43 0 0 1 2.4 2.4v36.9a2.43 2.43 0 0 1-2.4 2.4H28.6a2.37 2.37 0 0 1-2.4-2.4z"/><path class="cls-5" d="M33.3 36.9h19V44h-19z"/><path class="cls-3" d="M32.1 48.8h4.8M40.4 48.8h4.8M48.8 48.8h4.7M32.1 53.5h4.8M40.4 53.5h4.8M48.8 53.5h4.7M48.8 58.3h4.7M45.2 58.3h-4.8M36.9 58.3h-4.8"/><path class="cls-4" d="M30.9 30.9V17.8a4.8 4.8 0 0 0-4.8-4.8H50a4.8 4.8 0 0 1 4.8 4.8v13.1z"/><path class="cls-3" d="M15.5 54.7h8.3"/></g></g></svg>