<svg xmlns="http://www.w3.org/2000/svg" viewBox="0 0 59.23 72.3"><defs><style>.cls-1,.cls-3{fill:#fff}.cls-1,.cls-2,.cls-4,.cls-5{stroke:#373737;stroke-miterlimit:10;stroke-width:2px}.cls-2{fill:#e9eaeb}.cls-4{fill:none}.cls-5{fill:#9ad3d3}</style></defs><g id="Слой_2" data-name="Слой 2"><g id="Layer_1" data-name="Layer 1"><path class="cls-1" d="M47.61 27.3l-.2-.3a3.16 3.16 0 0 1-.3-4.4l4.7-4.5c1.7-1.6 4.2-1.9 5.4-.5l.2.3c1.3 1.3.9 3.8-.8 5.4L52 27.8c-1.19 1.1-3.09.8-4.39-.5zM23.61 33.2l-6.1-2.3-8.2 26a13.44 13.44 0 0 0 1.4 1.1A37.72 37.72 0 0 1 15 62.6l7.9 1.1c1.7-1.9 3.1-3.1 4.6-4.6 11.7.9 17.1-7.8 18.2-9.1S23.61 33.2 23.61 33.2z"/><path class="cls-2" d="M46.81 51.3h-20.5a4.59 4.59 0 0 1-4.6-4.6V5.6a4.59 4.59 0 0 1 4.6-4.6h20.5a4.59 4.59 0 0 1 4.6 4.6v41.1a4.53 4.53 0 0 1-4.6 4.6z"/><path class="cls-1" d="M21.71 7.9h29.7v34.2h-29.7zM50.81 50.3l-.3-.2c-1.3-1.1-1.8-2.7-1.1-3.5l3-3.4a3 3 0 0 1 4.3-.3l.3.2a3 3 0 0 1 .4 4.3l-3 3.4c-.7.8-2.41.6-3.6-.5z"/><path class="cls-3" d="M22.41 33a40 40 0 0 0 2.1-10.3 8.55 8.55 0 0 0-1.9-5.9 2.54 2.54 0 0 0-4.3.5c-2.3 7.5-2.8 9.5-4.2 13.3-1.6 4.2-.7 10.1-1.5 11.8-.2.3-5.6 7.4-7.1 9.5 1.6.8 5 2.3 6.3 3.5a33.42 33.42 0 0 1 4.4 4.8l1.2.1 7.2-7.5c3.2-8.8.6-16.3-2.2-19.8z"/><path class="cls-4" d="M24.71 52.9c3.1-8.9.5-16.3-2.3-19.9a40 40 0 0 0 2.1-10.3 8.55 8.55 0 0 0-1.9-5.9 2.54 2.54 0 0 0-4.3.5c-2.3 7.5-2.8 9.5-4.2 13.3-1.6 4.2-.7 10.1-1.5 11.8-.2.3-5.6 7.4-7.1 9.5 1.6.8 5 2.3 6.3 3.5a33.42 33.42 0 0 1 4.4 4.8l1.2.1"/><path class="cls-5" transform="rotate(-44.98 13.292 58.993)" d="M8.89 46.6h8.8v24.8h-8.8z"/><path class="cls-1" d="M50.81 42.3l-.3-.2c-1.3-1.1-1.8-2.7-1.1-3.6l3-3.5a3.14 3.14 0 0 1 4.4-.3l.3.2a3.15 3.15 0 0 1 .4 4.4l-3 3.5c-.8.8-2.4.6-3.7-.5z"/><path class="cls-1" d="M50.81 34.5l-.3-.2c-1.3-1.1-1.8-2.7-1.1-3.6l3-3.5a3.14 3.14 0 0 1 4.4-.3l.3.2a3.15 3.15 0 0 1 .4 4.4l-3 3.5c-.8.9-2.4.6-3.7-.5z"/><path class="cls-4" d="M33.11 46.7h6.9"/></g></g></svg>