<svg xmlns="http://www.w3.org/2000/svg" viewBox="0 0 75 71.5"><defs><style>.cls-1,.cls-6{fill:#fff}.cls-2{fill:none}.cls-2,.cls-4,.cls-5,.cls-6{stroke:#373737;stroke-width:2px}.cls-2,.cls-4,.cls-6{stroke-miterlimit:10}.cls-3,.cls-5{fill:#e9eaeb}.cls-4{fill:#9ad3d3}.cls-5{stroke-linejoin:round}</style></defs><g id="Слой_2" data-name="Слой 2"><g id="Layer_1" data-name="Layer 1"><path class="cls-1" d="M74 55.3V16.5H1v38.9a4.51 4.51 0 0 1 2 2.1h69.5a4.82 4.82 0 0 1 1.5-2.2z"/><path class="cls-2" d="M61.4 70.5h2.5l5.1-3.2-5.1-3.1h-2.5"/><path class="cls-3" d="M36.9 0A34.44 34.44 0 0 0 7.5 16.4h58.8A34.44 34.44 0 0 0 36.9 0zm0 69.2a34.72 34.72 0 0 0 25.6-11.3H11.3a34.2 34.2 0 0 0 25.6 11.3z"/><path class="cls-4" d="M62.7 64.2H16.1v6.3h46.6"/><path class="cls-2" d="M61.4 70.5v-6.3M14.8 64.2h-2.5a2.48 2.48 0 0 0-2.5 2.5V68a2.48 2.48 0 0 0 2.5 2.5h2.5"/><path class="cls-5" d="M8.6 49.1c0-.9-1.6-1.3-2.5-1.3a5 5 0 0 0-5 5V15.1a5 5 0 0 1 5-5c.9 0 2.5.2 2.5 1.3z"/><path class="cls-2" d="M41.3 16.4H8.6M66.4 16.4h-6.2M74 52.9a5 5 0 0 1-5 5H6a5 5 0 0 1-5-5"/><path class="cls-5" d="M66.4 49.1c0-.9 1.6-1.3 2.5-1.3a5 5 0 0 1 5 5V15.1a5 5 0 0 0-5-5c-.9 0-2.5.2-2.5 1.3z"/><path class="cls-4" d="M13.6 44v1.3h45.3v-44h-1.4z"/><path class="cls-2" d="M51.3 41.5v3.8M45.1 41.5v3.8M38.8 41.5v3.8M32.5 41.5v3.8M26.2 41.5v3.8"/><path class="cls-6" d="M50.1 18.9h1.2v17.6H33.7v-1.3l16.4-16.3z"/></g></g></svg>