<svg xmlns="http://www.w3.org/2000/svg" viewBox="0 0 189.47 169.48"><path d="M152.53 169.48a7.5 7.5 0 0 1-4.21-1.29l-47.64-32.32-25.55 18.39a7.5 7.5 0 0 1-11.63-4.17l-12.84-48.63L4.82 83.93a7.5 7.5 0 0 1-.09-14L179 .6a7.5 7.5 0 0 1 2.51-.6 7.82 7.82 0 0 1 .91 0 7.48 7.48 0 0 1 4.8 2.13c.14.14.27.27.4.42A7.47 7.47 0 0 1 189.45 7a7.61 7.61 0 0 1 0 1.2 7.29 7.29 0 0 1-.12.85L159.9 163.38a7.5 7.5 0 0 1-7.37 6.1zm-47.67-48.9l42.44 28.79 22.89-120.13-82.68 79.57 17.16 11.64zm-35.33-6.4l5.68 21.53 12.24-8.81L71.43 116a7.48 7.48 0 0 1-1.89-1.82zm-41.4-37.4l31.48 12a7.5 7.5 0 0 1 4.57 5.09l4 15.13a7.5 7.5 0 0 1 2.26-4.62l78.79-75.78z"/></svg>