<svg xmlns="http://www.w3.org/2000/svg" viewBox="0 0 62 19.09"><defs><style>.cls-1{fill:#1c478d}.cls-2{fill:#fab216}</style></defs><g id="Слой_2" data-name="Слой 2"><g id="Layer_1" data-name="Layer 1"><path class="cls-1" d="M57.92.34H54a2.5 2.5 0 0 0-2.64 1.54l-7.45 16.94h5.29l1.06-2.78h6.46c.15.65.61 2.77.61 2.77H62zm-6.21 11.92c.42-1.06 2-5.17 2-5.17s.41-1.07.67-1.77l.34 1.6 1.16 5.34zM44.26 12.77c0 3.84-3.47 6.32-8.77 6.32a16 16 0 0 1-5.62-1l.71-4.09.65.3a10.59 10.59 0 0 0 4.75 1c1.45 0 3-.57 3-1.81 0-.81-.65-1.39-2.61-2.29S31.93 8.76 32 6.1C32 2.51 35.5 0 40.48 0A12.91 12.91 0 0 1 45 .78l-.68 4-.46-.22a9.28 9.28 0 0 0-3.77-.71c-2 0-2.89.82-2.89 1.59s1.07 1.45 2.8 2.31c2.91 1.32 4.26 2.92 4.23 5z"/><path class="cls-2" d="M0 .53L.06.16h7.82a2 2 0 0 1 2.2 1.5l1.7 8.17C10.1 5.56 6.08 2 0 .53z"/><path class="cls-1" d="M22.79.34l-7.94 18.45H9.52L5 3.38A19.73 19.73 0 0 1 12 11l.53 1.91L17.45.34zM24.83.32h5.04l-3.16 18.49h-5.03L24.83.32z"/></g></g></svg>