<svg xmlns="http://www.w3.org/2000/svg" viewBox="0 0 21.17 11.76"><path d="M21.05 10.62l-.05-.13a10.77 10.77 0 0 0-2.11-2.37q-.71-.65-.89-.88a.81.81 0 0 1-.15-.87 8.09 8.09 0 0 1 1-1.41l.63-.96q1.91-2.46 1.66-3.15l-.07-.11a.65.65 0 0 0-.34-.18 1.76 1.76 0 0 0-.71 0h-3.17a.42.42 0 0 0-.22 0h-.19a.47.47 0 0 0-.12.11.73.73 0 0 0-.11.19A17.35 17.35 0 0 1 15 3.37q-.41.67-.75 1.15a5.62 5.62 0 0 1-.57.72 3.93 3.93 0 0 1-.42.37c-.13.09-.22.13-.29.12h-.19a.71.71 0 0 1-.25-.26 1.15 1.15 0 0 1-.14-.47V1.36a2.42 2.42 0 0 0 0-.49 1.63 1.63 0 0 0-.12-.34.58.58 0 0 0-.27-.24 1.28 1.28 0 0 0-.37-.15A7.58 7.58 0 0 0 10.18 0a7.42 7.42 0 0 0-2.63.26 1.47 1.47 0 0 0-.42.32q-.2.24-.06.26A1.37 1.37 0 0 1 8 1.3l.07.13a2 2 0 0 1 .15.49 4.84 4.84 0 0 1 .1.78A8.08 8.08 0 0 1 8.33 4q-.05.56-.1.87a1.7 1.7 0 0 1-.15.5 2 2 0 0 1-.13.24l-.05.05a.84.84 0 0 1-.3.05.71.71 0 0 1-.37-.15 2.62 2.62 0 0 1-.46-.41 5.51 5.51 0 0 1-.54-.73q-.3-.42-.62-1.07L5.43 3q-.17-.3-.45-.87t-.51-1.08a.71.71 0 0 0-.26-.34h-.05L4 .59a1.2 1.2 0 0 0-.27-.07h-3a.78.78 0 0 0-.63.2L0 .81A.34.34 0 0 0 0 1a.83.83 0 0 0 .07.29q.66 1.49 1.43 2.9t1.35 2.26q.58.86 1.15 1.62t.79 1l.3.32.28.26a6.43 6.43 0 0 0 .78.62A13.27 13.27 0 0 0 7.3 11a6.26 6.26 0 0 0 1.45.57 5.12 5.12 0 0 0 1.61.18h1.27a.89.89 0 0 0 .58-.24v-.05a.7.7 0 0 0 .08-.2 1.07 1.07 0 0 0 0-.3 3.47 3.47 0 0 1 .07-.83 2.14 2.14 0 0 1 .19-.56 1.35 1.35 0 0 1 .24-.32.93.93 0 0 1 .19-.16h.09a.72.72 0 0 1 .62.17 3.65 3.65 0 0 1 .67.62q.31.37.75.83a5.22 5.22 0 0 0 .77.69l.22.13a2.7 2.7 0 0 0 .57.24 1.26 1.26 0 0 0 .62.05h2.82a1.31 1.31 0 0 0 .65-.13.54.54 0 0 0 .28-.29.81.81 0 0 0 0-.37 1.36 1.36 0 0 0-.08-.28zm0 0" data-name="Слой 2"/></svg>